<svg xmlns="http://www.w3.org/2000/svg" viewBox="0 0 125.4 156.34"><defs><style>.cls-1,.cls-3{fill:#fff;stroke:#808285;stroke-miterlimit:10;}.cls-2{fill:#e6e7e8;}.cls-3{stroke-linecap:round;stroke-width:3px;}.cls-4{fill:#fbb040;}</style></defs><g id="Layer_2" data-name="Layer 2"><g id="Layer_1-2" data-name="Layer 1"><path class="cls-1" d="M112.09,144.16H13.73c-2.56,0-4.64-1.79-4.64-4V13.1c0-2.21,2.08-4,4.64-4H99.62l17.11,14V140.16C116.73,142.37,114.65,144.16,112.09,144.16Z"/><polyline class="cls-1" points="99.62 9.09 101.02 25.89 116.73 25.31"/><rect class="cls-2" x="23.17" y="92.45" width="71.58" height="2.6"/><rect class="cls-2" x="23.17" y="98.96" width="58.38" height="2.6"/><rect class="cls-2" x="23.17" y="105.46" width="68.82" height="2.6"/><rect class="cls-2" x="23.17" y="113.05" width="37.43" height="2.6"/><rect class="cls-2" x="23.17" y="119.56" width="67.43" height="2.6"/><rect class="cls-2" x="23.17" y="126.06" width="79.48" height="2.6"/><path class="cls-3" d="M39.21,46.52a7.43,7.43,0,0,0,14.86,0"/><path class="cls-3" d="M71.76,46.52a7.43,7.43,0,0,0,14.86,0"/><path class="cls-3" d="M53.37,74.15c0-2.76,4.48-5,10-5s10,2.24,10,5"/><path class="cls-4" d="M124.64,131c-10,10.59-7.65,17,.76,25.38-8.47-8.47-17.61-9.48-26.47-.61,8.92-8.93,10-15.86-.62-26.48C109.06,140,112.36,140.1,124.64,131Z"/><path class="cls-4" d="M17,17.68C9.93,11,5.64,12.54,0,18.18,5.69,12.5,6.36,6.36.41.42c6,6,10.65,6.71,17.77-.42C11,7.22,10.9,9.43,17,17.68Z"/></g></g></svg>